<svg width="604" height="638" viewBox="0 0 604 638" fill="none" xmlns="http://www.w3.org/2000/svg">
<mask id="path-1-inside-1_2047_24248" fill="white">
<path fill-rule="evenodd" clip-rule="evenodd" d="M40 30C40 13.4315 53.4315 0 70 0H534C550.569 0 564 13.4315 564 30V40H574C590.569 40 604 53.4315 604 70V568C604 584.569 590.569 598 574 598H564V608C564 624.569 550.569 638 534 638H70C53.4315 638 40 624.569 40 608V598H30C13.4314 598 0 584.569 0 568V70C0 53.4315 13.4315 40 30 40H40V30Z"/>
</mask>
<path fill-rule="evenodd" clip-rule="evenodd" d="M40 30C40 13.4315 53.4315 0 70 0H534C550.569 0 564 13.4315 564 30V40H574C590.569 40 604 53.4315 604 70V568C604 584.569 590.569 598 574 598H564V608C564 624.569 550.569 638 534 638H70C53.4315 638 40 624.569 40 608V598H30C13.4314 598 0 584.569 0 568V70C0 53.4315 13.4315 40 30 40H40V30Z" fill="#FFFCF7"/>
<path d="M564 40H563V41H564V40ZM564 598V597H563V598H564ZM40 598H41V597H40V598ZM40 40V41H41V40H40ZM70 -1C52.8792 -1 39 12.8792 39 30H41C41 13.9837 53.9837 1 70 1V-1ZM534 -1H70V1H534V-1ZM565 30C565 12.8792 551.121 -1 534 -1V1C550.016 1 563 13.9837 563 30H565ZM565 40V30H563V40H565ZM574 39H564V41H574V39ZM605 70C605 52.8792 591.121 39 574 39V41C590.016 41 603 53.9837 603 70H605ZM605 568V70H603V568H605ZM574 599C591.121 599 605 585.121 605 568H603C603 584.016 590.016 597 574 597V599ZM564 599H574V597H564V599ZM563 598V608H565V598H563ZM563 608C563 624.016 550.016 637 534 637V639C551.121 639 565 625.121 565 608H563ZM534 637H70V639H534V637ZM70 637C53.9838 637 41 624.016 41 608H39C39 625.121 52.8792 639 70 639V637ZM41 608V598H39V608H41ZM30 599H40V597H30V599ZM-1 568C-1 585.121 12.8792 599 30 599V597C13.9837 597 1 584.016 1 568H-1ZM-1 70V568H1V70H-1ZM30 39C12.8792 39 -1 52.8792 -1 70H1C1 53.9837 13.9837 41 30 41V39ZM40 39H30V41H40V39ZM39 30V40H41V30H39Z" fill="#F0DBBC" mask="url(#path-1-inside-1_2047_24248)"/>
</svg>
