<svg width="22" height="20" viewBox="0 0 22 20" fill="none" xmlns="http://www.w3.org/2000/svg">
<path d="M1.49954 7H20.4995M8.99954 1L6.99954 7L10.9995 18.5L14.9995 7L12.9995 1M11.6141 18.2625L20.5727 7.51215C20.7246 7.32995 20.8005 7.23885 20.8295 7.13717C20.8551 7.04751 20.8551 6.95249 20.8295 6.86283C20.8005 6.76114 20.7246 6.67005 20.5727 6.48785L16.2394 1.28785C16.1512 1.18204 16.1072 1.12914 16.0531 1.09111C16.0052 1.05741 15.9518 1.03238 15.8953 1.01717C15.8314 1 15.7626 1 15.6248 1H6.37424C6.2365 1 6.16764 1 6.10382 1.01717C6.04728 1.03238 5.99385 1.05741 5.94596 1.09111C5.89192 1.12914 5.84783 1.18204 5.75966 1.28785L1.42633 6.48785C1.2745 6.67004 1.19858 6.76114 1.16957 6.86283C1.144 6.95249 1.144 7.04751 1.16957 7.13716C1.19858 7.23885 1.2745 7.32995 1.42633 7.51215L10.385 18.2625C10.596 18.5158 10.7015 18.6424 10.8279 18.6886C10.9387 18.7291 11.0603 18.7291 11.1712 18.6886C11.2975 18.6424 11.4031 18.5158 11.6141 18.2625Z" stroke="#631517" stroke-linecap="round" stroke-linejoin="round"/>
</svg>
