<svg width="134" height="110" viewBox="0 0 134 110" fill="none" xmlns="http://www.w3.org/2000/svg">
<g opacity="0.5">
<path d="M14.0547 61.1273C14.0547 32.3053 37.4195 8.94043 66.2413 8.94043C95.0633 8.94043 118.428 32.3053 118.428 61.1273V97.2977C118.428 99.3743 116.745 101.058 114.668 101.058H17.8146C15.738 101.058 14.0547 99.3743 14.0547 97.2977V61.1273Z" fill="#E2B579"/>
<path d="M117.49 61.1276V97.2982C117.49 98.8556 116.227 100.118 114.67 100.118H17.816C16.2586 100.118 14.9961 98.8556 14.9961 97.2982V61.1278C14.9961 32.8248 37.94 9.88086 66.2428 9.88086C94.5458 9.88086 117.49 32.8248 117.49 61.1276Z" stroke="url(#paint0_linear_4457_50725)" stroke-opacity="0.4" stroke-width="0.939972" stroke-linecap="round" stroke-linejoin="round"/>
<path d="M25.332 61.2613C25.332 38.5947 43.707 20.2197 66.3736 20.2197C89.0402 20.2197 107.415 38.5947 107.415 61.2613V89.4785C107.415 90.5167 106.574 91.3585 105.535 91.3585H27.212C26.1738 91.3585 25.332 90.5167 25.332 89.4785V61.2613Z" fill="white"/>
<path d="M108.358 89.478V61.2608C108.358 38.075 89.5619 19.2793 66.3761 19.2793C43.1903 19.2793 24.3945 38.075 24.3945 61.2608V89.478C24.3945 91.0354 25.6571 92.298 27.2145 92.298H105.538C107.095 92.298 108.358 91.0354 108.358 89.478Z" stroke="url(#paint1_linear_4457_50725)" stroke-opacity="0.4" stroke-width="0.939972" stroke-linecap="round" stroke-linejoin="round"/>
<path d="M108.358 89.478V61.2608C108.358 38.075 89.5619 19.2793 66.3761 19.2793C43.1903 19.2793 24.3945 38.075 24.3945 61.2608V89.478C24.3945 91.0354 25.6571 92.298 27.2145 92.298H105.538C107.095 92.298 108.358 91.0354 108.358 89.478Z" stroke="url(#paint2_linear_4457_50725)" stroke-opacity="0.4" stroke-width="0.939972" stroke-linecap="round" stroke-linejoin="round"/>
</g>
<path d="M6.46094 82.1377V101.059C6.46094 105.212 9.82766 108.579 13.9807 108.579H120.014C124.168 108.579 127.534 105.212 127.534 101.059V87.0005" stroke="url(#paint3_linear_4457_50725)" stroke-opacity="0.8" stroke-width="0.939972" stroke-linecap="round" stroke-linejoin="round"/>
<path d="M6.46094 71.8137V63.3665C6.46094 29.1549 33.5641 1.4209 66.9975 1.4209C100.431 1.4209 127.534 29.1549 127.534 63.3665V77.9615" stroke="url(#paint4_linear_4457_50725)" stroke-opacity="0.8" stroke-width="0.939972" stroke-linecap="round" stroke-linejoin="round"/>
<path fill-rule="evenodd" clip-rule="evenodd" d="M55.4293 72.1734H56.3631V65.6012C56.8299 66.8802 59.1167 68.5564 59.1167 68.5564C59.1167 68.5564 60.8901 69.968 61.7305 71.9088L62.2905 72.1734V62.6016H61.3573V69.3062C60.8437 68.0272 58.8367 66.5274 58.8367 66.5274C57.2965 65.2482 56.2695 63.4838 56.0363 62.6456L55.4293 62.4694V72.1734ZM65.6043 62.6016H66.9115V72.1734H65.6043V62.6016ZM64.9979 59.7786C64.9979 59.0728 65.5575 58.5434 66.3043 58.5434C66.9579 58.5434 67.5649 59.0728 67.5649 59.7786C67.5649 60.44 66.9579 61.0136 66.3043 61.0136C65.5575 61.0136 64.9979 60.44 64.9979 59.7786ZM76.1527 64.8072C75.8259 64.8954 75.4991 64.763 75.1725 64.4984C74.7057 64.1014 74.5195 63.7044 73.9123 63.3516C73.2587 63.0428 72.3255 62.9986 71.7655 63.3956C71.2521 63.7484 71.2521 64.5424 71.8121 64.9836C72.8855 65.7776 74.0523 66.2186 75.4061 66.8802C77.8797 68.1152 78.2999 70.2768 76.5727 71.3796C75.1261 72.3058 73.3055 72.394 71.6721 71.8206C70.4117 71.3354 69.4315 70.365 69.2915 69.174C70.1319 69.174 70.4117 69.527 70.7385 70.012C71.2521 70.6738 71.5789 70.9384 72.3255 71.247C73.3989 71.6442 74.6125 71.5118 75.3127 71.1148C76.3395 70.4974 76.1995 69.4828 75.4527 68.821C73.9123 67.4538 71.9989 67.0568 70.9253 66.0422C69.9919 65.16 69.6651 64.1896 70.6455 63.175C71.4853 62.3368 73.7257 62.0724 75.0325 63.1308C75.5925 63.6162 76.0127 64.1896 76.1527 64.8072ZM79.9333 71.9088H81.2869V69.3062H84.9743V72.0412H86.3745V62.6016H84.9743V68.5564H81.2869V62.6016H79.9333V71.9088ZM36.6667 63.2192C36.4799 62.8664 36.7597 61.9398 37.8801 62.028H43.3875C44.0877 62.0724 44.5077 61.587 45.3943 61.6752C44.1343 62.6456 43.9945 63.1308 43.7611 64.0572L42.8743 70.8944C42.6409 73.6732 43.4807 75.967 45.6747 77.8638C44.3213 78.0402 41.3805 76.0112 41.2873 72.3058C41.1937 70.4532 41.7541 64.5424 41.7541 64.5424C41.8941 63.572 42.5475 62.8664 42.5475 62.8664H37.3197C36.9933 62.9104 36.8065 62.9104 36.6667 63.2192ZM93.0019 71.6C91.9287 70.762 91.2753 70.0562 90.6217 68.6888C89.9683 67.4538 89.9217 65.998 90.2015 64.9836C90.5283 63.8808 91.3217 63.0868 92.0687 62.5134C92.9089 63.0868 93.7957 63.7926 94.4489 64.8072C95.5225 66.5274 95.5225 67.7624 94.8225 69.4388C94.4023 70.409 93.9357 70.9826 93.0019 71.6ZM92.4419 61.4106C91.0883 62.425 89.9683 63.3074 89.3617 64.6306C88.7081 65.954 88.5215 67.8508 89.3617 69.4828C90.2951 71.2914 91.3685 72.2618 92.6287 73.4526C93.5155 74.379 95.1957 76.2318 94.6357 77.8638C95.0557 77.8638 95.6157 76.8932 95.7093 76.5404C95.9427 75.3934 95.8027 74.8202 95.2889 73.982C94.9621 73.4086 94.2625 72.8352 93.7487 72.2618C94.4957 71.6884 95.2889 70.85 95.9427 70.012C96.7829 68.9092 97.2959 67.0568 96.2229 65.2482C95.2425 63.5278 92.4887 61.9398 92.4419 61.4106ZM47.5417 69.3062H51.4621V65.1158C50.4819 66.8362 48.1481 67.7624 47.5417 69.3062ZM47.0749 72.1734C46.7013 71.2914 46.9815 70.3208 47.2149 69.968H51.4621V72.1734H52.5359V62.425C52.5359 62.425 52.2089 62.381 51.9757 62.7338C50.3887 65.1158 49.1753 65.7334 47.4017 67.4096C45.9079 68.821 44.7877 70.409 45.3477 72.1734H47.0749ZM75.6859 44.4722C76.0127 43.0166 75.0325 41.6932 73.4923 41.6932H69.2915C68.2183 41.7374 66.7715 40.8994 66.7715 40.8994V47.56C66.7715 54.3088 70.6921 57.176 72.5119 57.4406C72.8387 57.573 73.0723 57.4848 72.6523 57.176C70.1783 55.6764 68.7315 52.1032 68.5917 49.0596V42.9726C69.1051 43.2812 70.0851 43.3254 70.0851 43.3254H73.8189C74.7993 43.3254 75.3127 43.6342 75.6859 44.4722ZM56.8763 44.4722C56.5495 43.0166 57.5767 41.6932 59.0699 41.6932H63.2709C64.3909 41.7374 65.7911 40.8994 65.7911 40.8994V47.56C65.7911 54.3088 61.8703 57.176 60.0503 57.4406C59.7235 57.573 59.4903 57.4848 59.9103 57.176C62.3839 55.6764 63.8309 52.1032 63.9707 49.0596V42.9726C63.4575 43.2812 62.4773 43.3254 62.4773 43.3254H58.7899C57.8099 43.3254 57.2965 43.6342 56.8763 44.4722Z" fill="#85591C"/>
<path d="M5.54937 75.7018C5.96235 75.0056 6.95989 75.0056 7.37287 75.7018L11.8745 83.292C12.2721 83.9624 11.8518 84.8032 11.1201 84.9098C11.0173 84.9248 10.9142 84.8978 10.8205 84.8532L6.46111 82.7698L2.10175 84.8532C2.00806 84.8978 1.90493 84.9248 1.80218 84.9098C1.07045 84.8032 0.650169 83.9624 1.0477 83.292L5.54937 75.7018Z" fill="#F7D8AF"/>
<path d="M128.452 82.9328C128.039 83.7286 127.042 83.7286 126.629 82.9328L122.127 74.2582C121.733 73.499 122.142 72.5483 122.862 72.4127C122.976 72.3911 123.092 72.4258 123.195 72.4816L127.54 74.855L131.886 72.4816C131.988 72.4258 132.104 72.3911 132.219 72.4127C132.938 72.5483 133.348 73.499 132.954 74.2582L128.452 82.9328Z" fill="#B98C51"/>
<defs>
<linearGradient id="paint0_linear_4457_50725" x1="19.8403" y1="23.9722" x2="65.9124" y2="-0.821893" gradientUnits="userSpaceOnUse">
<stop stop-color="#F5CE9B"/>
<stop offset="1" stop-color="#A76F25"/>
</linearGradient>
<linearGradient id="paint1_linear_4457_50725" x1="29.8835" y1="31.8272" x2="65.8173" y2="12.1344" gradientUnits="userSpaceOnUse">
<stop stop-color="#F5CE9B"/>
<stop offset="1" stop-color="#A76F25"/>
</linearGradient>
<linearGradient id="paint2_linear_4457_50725" x1="29.8835" y1="31.8272" x2="65.8173" y2="12.1344" gradientUnits="userSpaceOnUse">
<stop stop-color="#F5CE9B"/>
<stop offset="1" stop-color="#A76F25"/>
</linearGradient>
<linearGradient id="paint3_linear_4457_50725" x1="13.1706" y1="86.4523" x2="25.1989" y2="60.2925" gradientUnits="userSpaceOnUse">
<stop stop-color="#F5CE9B"/>
<stop offset="1" stop-color="#A76F25"/>
</linearGradient>
<linearGradient id="paint4_linear_4457_50725" x1="13.1706" y1="13.9104" x2="57.2251" y2="-19.188" gradientUnits="userSpaceOnUse">
<stop stop-color="#F5CE9B"/>
<stop offset="1" stop-color="#A76F25"/>
</linearGradient>
</defs>
</svg>
